<svg xmlns="http://www.w3.org/2000/svg" width="1000" height="753" viewBox="0 0 1000 753" role="img" aria-label="Google Business profil, radnja sa tendom i ocenama">
<defs>
  <linearGradient id="bg10" x1="0" y1="0" x2="1" y2="1">
    <stop offset="0" stop-color="#1a1412"/><stop offset="1" stop-color="#14100E"/>
  </linearGradient>
  <radialGradient id="glow10" cx="0.55" cy="0.34" r="0.62">
    <stop offset="0" stop-color="#8C2438" stop-opacity="0.32"/>
    <stop offset="0.55" stop-color="#8C2438" stop-opacity="0.13"/>
    <stop offset="1" stop-color="#8C2438" stop-opacity="0"/>
  </radialGradient>
  <pattern id="grid10" width="34" height="34" patternUnits="userSpaceOnUse">
    <path d="M34 0H0V34" fill="none" stroke="#F2EAE2" stroke-opacity="0.035" stroke-width="1"/>
  </pattern>
</defs>
<rect width="1000" height="753" fill="url(#bg10)"/>
<rect width="1000" height="753" fill="url(#grid10)"/>
<rect width="1000" height="753" fill="url(#glow10)"/>

<ellipse cx="500" cy="440" rx="250" ry="50" fill="none" stroke="#F2EAE2" stroke-opacity="0.16" stroke-width="1.5"/>
<!-- krov -->
<path d="M330 300 L670 300 L640 240 L360 240 Z" fill="none" stroke="#F2EAE2" stroke-width="3" stroke-linejoin="round"/>
<!-- tenda: jedna zupčasta traka spojena sa donjom ivicom krova -->
<path d="M330 300 L670 300 L670 328 L629 300 L588 328 L547 300 L506 328 L465 300 L424 328 L383 300 L342 328 Z"
      fill="#8C2438" fill-opacity="0.18" stroke="#F2EAE2" stroke-width="2.5" stroke-linejoin="round"/>
<line x1="381" y1="300" x2="381" y2="314" stroke="#8C2438" stroke-width="6" stroke-linecap="round"/>
<line x1="463" y1="300" x2="463" y2="314" stroke="#F2EAE2" stroke-width="6" stroke-linecap="round" opacity="0.7"/>
<line x1="545" y1="300" x2="545" y2="314" stroke="#8C2438" stroke-width="6" stroke-linecap="round"/>
<line x1="627" y1="300" x2="627" y2="314" stroke="#F2EAE2" stroke-width="6" stroke-linecap="round" opacity="0.7"/>
<rect x="330" y="328" width="340" height="112" fill="none" stroke="#F2EAE2" stroke-width="3"/>
<rect x="470" y="380" width="60" height="60" fill="none" stroke="#F2EAE2" stroke-width="2.5"/>
<rect x="358" y="352" width="90" height="55" fill="none" stroke="#D9707C" stroke-width="2.5"/>
<line x1="358" y1="365" x2="440" y2="399" stroke="#D9707C" stroke-width="1.5" opacity="0.6"/>
<!-- zvezdice pilula -->
<rect x="580" y="150" width="230" height="62" rx="31" fill="none" stroke="#F2EAE2" stroke-width="2.5"/>
<g fill="#B03A47">
  <path d="M609 179 l4 9 10 1 -7 7 2 10 -9 -5 -9 5 2 -10 -7 -7 10 -1 Z"/>
  <path d="M650 179 l4 9 10 1 -7 7 2 10 -9 -5 -9 5 2 -10 -7 -7 10 -1 Z"/>
  <path d="M691 179 l4 9 10 1 -7 7 2 10 -9 -5 -9 5 2 -10 -7 -7 10 -1 Z"/>
  <path d="M732 179 l4 9 10 1 -7 7 2 10 -9 -5 -9 5 2 -10 -7 -7 10 -1 Z"/>
  <path d="M773 179 l4 9 10 1 -7 7 2 10 -9 -5 -9 5 2 -10 -7 -7 10 -1 Z"/>
</g>
<path d="M695 212 Q705 232 700 252" fill="none" stroke="#F2EAE2" stroke-opacity="0.4" stroke-width="2" stroke-dasharray="2 6"/>
<circle cx="220" cy="240" r="6" fill="none" stroke="#F2EAE2" stroke-width="2" opacity="0.5"/>
<circle cx="195" cy="380" r="4" fill="#B03A47" opacity="0.7"/>
<circle cx="810" cy="420" r="5" fill="#F2EAE2" opacity="0.25"/>

<rect x="0.5" y="0.5" width="999" height="752" fill="none" stroke="#2E2622" stroke-width="1"/>
</svg>
