<svg xmlns="http://www.w3.org/2000/svg" width="1200" height="630" viewBox="0 0 1200 630" role="img" aria-label="GA4 analitika, tri metrike koje su bitne">
<defs>
  <linearGradient id="bg3" x1="0" y1="0" x2="1" y2="1">
    <stop offset="0" stop-color="#1a1412"/><stop offset="1" stop-color="#14100E"/>
  </linearGradient>
  <radialGradient id="glow3" cx="0.24" cy="0.16" r="0.78">
    <stop offset="0" stop-color="#B03A47" stop-opacity="0.40"/>
    <stop offset="0.55" stop-color="#8C2438" stop-opacity="0.14"/>
    <stop offset="1" stop-color="#8C2438" stop-opacity="0"/>
  </radialGradient>
  <radialGradient id="glow23" cx="0.86" cy="0.92" r="0.62">
    <stop offset="0" stop-color="#8C2438" stop-opacity="0.30"/>
    <stop offset="1" stop-color="#8C2438" stop-opacity="0"/>
  </radialGradient>
  <linearGradient id="acc3" x1="0" y1="1" x2="0" y2="0">
    <stop offset="0" stop-color="#8C2438"/><stop offset="1" stop-color="#D9707C"/>
  </linearGradient>
  <linearGradient id="fade3" x1="0" y1="0" x2="1" y2="0">
    <stop offset="0" stop-color="#F2EAE2" stop-opacity="0.9"/>
    <stop offset="1" stop-color="#F2EAE2" stop-opacity="0.15"/>
  </linearGradient>
  <pattern id="grid3" width="40" height="40" patternUnits="userSpaceOnUse">
    <path d="M40 0H0V40" fill="none" stroke="#F2EAE2" stroke-opacity="0.035" stroke-width="1"/>
  </pattern>
</defs>
<rect width="1200" height="630" fill="url(#bg3)"/>
<rect width="1200" height="630" fill="url(#grid3)"/>
<rect width="1200" height="630" fill="url(#glow3)"/>
<rect width="1200" height="630" fill="url(#glow23)"/>
<g>
<polygon points="740,420 740,380.0 749,369.8 758,359.7 767,349.9 776,340.7 785,332.0 794,324.1 803,317.1 812,311.0 821,306.0 830,302.0 839,299.1 848,297.2 857,296.4 866,296.5 875,297.5 884,299.3 893,301.7 902,304.6 911,307.8 920,311.3 929,314.7 938,318.0 947,321.0 956,323.5 965,325.5 974,326.6 983,326.9 992,326.3 1001,324.7 1010,322.0 1019,318.2 1028,313.4 1037,307.5 1046,300.7 1055,293.0 1064,284.5 1073,275.4 1082,265.7 1091,255.7 1100,245.5 1109,235.2 1118,225.1 1127,215.2 1136,205.9 1145,197.1 1145,420" fill="#8C2438" opacity="0.20"/>
<polyline points="740,380.0 749,369.8 758,359.7 767,349.9 776,340.7 785,332.0 794,324.1 803,317.1 812,311.0 821,306.0 830,302.0 839,299.1 848,297.2 857,296.4 866,296.5 875,297.5 884,299.3 893,301.7 902,304.6 911,307.8 920,311.3 929,314.7 938,318.0 947,321.0 956,323.5 965,325.5 974,326.6 983,326.9 992,326.3 1001,324.7 1010,322.0 1019,318.2 1028,313.4 1037,307.5 1046,300.7 1055,293.0 1064,284.5 1073,275.4 1082,265.7 1091,255.7 1100,245.5 1109,235.2 1118,225.1 1127,215.2 1136,205.9 1145,197.1" fill="none" stroke="#D9707C" stroke-width="3" stroke-linecap="round" stroke-linejoin="round"/>
<circle cx="1145" cy="197.1" r="8" fill="#D9707C"/>
<line x1="740" y1="420" x2="1150" y2="420" stroke="#F2EAE2" stroke-opacity="0.12" stroke-width="1.5"/>
<rect x="72" y="150" width="140" height="104" rx="16" fill="#1E1815" stroke="#2E2622"/>
<text x="92" y="182" font-family="IBM Plex Mono, monospace" font-size="12" letter-spacing="1.6" fill="#A69A8F">KORISNICI</text>
<text x="92" y="226" font-family="Fraunces, Georgia, serif" font-weight="600" font-size="34" fill="#F2EAE2">2.4k</text><rect x="228" y="150" width="140" height="104" rx="16" fill="#1E1815" stroke="#2E2622"/>
<text x="248" y="182" font-family="IBM Plex Mono, monospace" font-size="12" letter-spacing="1.6" fill="#A69A8F">UPITI</text>
<text x="248" y="226" font-family="Fraunces, Georgia, serif" font-weight="600" font-size="34" fill="#F2EAE2">318</text><rect x="384" y="150" width="140" height="104" rx="16" fill="#1E1815" stroke="#2E2622"/>
<text x="404" y="182" font-family="IBM Plex Mono, monospace" font-size="12" letter-spacing="1.6" fill="#A69A8F">CENA UPITA</text>
<text x="404" y="226" font-family="Fraunces, Georgia, serif" font-weight="600" font-size="34" fill="#F2EAE2">480</text>
<g opacity="0.6">
 <rect x="72" y="286" width="452" height="10" rx="5" fill="#F2EAE2" fill-opacity="0.14"/>
 <rect x="72" y="312" width="352" height="10" rx="5" fill="#F2EAE2" fill-opacity="0.10"/>
 <rect x="72" y="338" width="404" height="10" rx="5" fill="#F2EAE2" fill-opacity="0.07"/>
</g>
<g transform="translate(1108,110) scale(1)" opacity="0.75">
 <circle cx="0" cy="0" r="28" fill="#F2EAE2" fill-opacity="0.05" stroke="#F2EAE2" stroke-opacity="0.18"/>
 <text x="0" y="6" text-anchor="middle" font-family="IBM Plex Mono, monospace" font-weight="500" font-size="16" letter-spacing="1.2" fill="#F2EAE2" fill-opacity="0.62">DFT</text></g>
</g><text x="72" y="512" font-family="IBM Plex Mono, monospace" font-size="17" letter-spacing="3.4" fill="#D9707C">ANALITIKA · GA4</text>
<text x="72" y="566" font-family="Fraunces, Georgia, serif" font-weight="500" font-size="44" fill="#F2EAE2">Tri metrike koje su bitne</text>
<text x="72" y="600" font-family="IBM Plex Sans, sans-serif" font-size="19" fill="#A69A8F">Ostalo je šum koji vas usporava</text>
<rect x="0.5" y="0.5" width="1199" height="629" fill="none" stroke="#2E2622" stroke-width="1"/>
</svg>